ffmpeg started on 2025-05-12 at 18:28:22
Report written to "D:\Convert\FFMetrics\reports\ssim_report-6.txt"
Log level: 32
Command line:
ffmpeg -hide_banner -nostdin -i "G:\\\xc0\xed\xe8\xec\xe5\\\xce\xed\xe3\xee\xe8\xed\xe3\xe8\\!_35_\xcb\xe5\xf2\xee_2024\\DreamCast\\\xce\xf2\xf0\xff\xe4 \xf1\xe0\xec\xee\xf3\xe1\xe8\xe9\xf6 \xe8\xe7 \xe4\xf0\xf3\xe3\xee\xe3\xee \xec\xe8\xf0\xe0\\[DC] Isekai Suicide Squad - 09_Telegram_HEVC.mkv" -i "G:\\\xc0\xed\xe8\xec\xe5\\\xce\xed\xe3\xee\xe8\xed\xe3\xe8\\!_35_\xcb\xe5\xf2\xee_2024\\DreamCast\\\xce\xf2\xf0\xff\xe4 \xf1\xe0\xec\xee\xf3\xe1\xe8\xe9\xf6 \xe8\xe7 \xe4\xf0\xf3\xe3\xee\xe3\xee \xec\xe8\xf0\xe0\\[DC] Isekai Suicide Squad - 09_Telegram.mp4" -lavfi "[0:v]settb=AVTB,setpts=PTS-STARTPTS,format=pix_fmts=yuv420p10,fps=24000/1001,scale=1920:1080:flags=bicubic[main];[1:v]settb=AVTB,setpts=PTS-STARTPTS,format=pix_fmts=yuv420p,fps=24000/1001,scale=1920:1080:flags=bicubic[ref];[main][ref]ssim=eof_action=endall:stats_file='D\\:/Convert/FFMetrics/logs/ssim_logfile-6.txt'" -f null -
Input #0, matroska,webm, from 'G:\Аниме\Онгоинги\!_35_Лето_2024\DreamCast\Отряд самоубийц из другого мира\[DC] Isekai Suicide Squad - 09_Telegram_HEVC.mkv':
  Metadata:
    COMPATIBLE_BRANDS: isomiso2avc1mp41
    MAJOR_BRAND     : isom
    MINOR_VERSION   : 512
    ENCODER         : Lavf61.7.100
  Duration: 00:24:10.71, start: -0.021000, bitrate: 1443 kb/s
  Stream #0:0: Video: hevc (Main 10), yuv420p10le(tv, bt709, progressive), 1920x1080 [SAR 1:1 DAR 16:9], 23.98 fps, 23.98 tbr, 1k tbn (default)
      Metadata:
        HANDLER_NAME    : VideoHandler
        VENDOR_ID       : [0][0][0][0]
        ENCODER         : Lavc61.19.100 libx265
        BPS             : 1246593
        DURATION        : 00:24:10.615708333
        NUMBER_OF_FRAMES: 34780
        NUMBER_OF_BYTES : 226040972
        _STATISTICS_WRITING_APP: mkvpropedit v66.0.0 ('Josie') 64-bit
        _STATISTICS_WRITING_DATE_UTC: 2025-05-09 14:32:33
        _STATISTICS_TAGS: BPS DURATION NUMBER_OF_FRAMES NUMBER_OF_BYTES
  Stream #0:1: Audio: aac (LC), 48000 Hz, stereo, fltp (default)
      Metadata:
        HANDLER_NAME    : SoundHandler
        VENDOR_ID       : [0][0][0][0]
        ENCODER         : Lavc61.19.100 aac
        BPS             : 192669
        DURATION        : 00:24:10.709000000
        NUMBER_OF_FRAMES: 68003
        NUMBER_OF_BYTES : 34938433
        _STATISTICS_WRITING_APP: mkvpropedit v66.0.0 ('Josie') 64-bit
        _STATISTICS_WRITING_DATE_UTC: 2025-05-09 14:32:33
        _STATISTICS_TAGS: BPS DURATION NUMBER_OF_FRAMES NUMBER_OF_BYTES
Input #1, mov,mp4,m4a,3gp,3g2,mj2, from 'G:\Аниме\Онгоинги\!_35_Лето_2024\DreamCast\Отряд самоубийц из другого мира\[DC] Isekai Suicide Squad - 09_Telegram.mp4':
  Metadata:
    major_brand     : isom
    minor_version   : 512
    compatible_brands: isomiso2avc1mp41
    encoder         : Lavf60.16.100
  Duration: 00:24:10.68, start: 0.000000, bitrate: 3985 kb/s
  Stream #1:0[0x1](und): Video: h264 (High) (avc1 / 0x31637661), yuv420p(tv, bt709, progressive), 1920x1080 [SAR 1:1 DAR 16:9], 3837 kb/s, 23.98 fps, 23.98 tbr, 24k tbn (default)
      Metadata:
        handler_name    : VideoHandler
        vendor_id       : [0][0][0][0]
        encoder         : Lavc60.31.102 h264_qsv
  Stream #1:1[0x2](und): Audio: aac (HE-AACv2) (mp4a / 0x6134706D), 48000 Hz, stereo, fltp, 144 kb/s (default)
      Metadata:
        handler_name    : SoundHandler
        vendor_id       : [0][0][0][0]
Stream mapping:
  Stream #0:0 (hevc) -> settb:default
  Stream #1:0 (h264) -> settb:default
  ssim:default -> Stream #0:0 (wrapped_avframe)
  Stream #0:1 -> #0:1 (aac (native) -> pcm_s16le (native))
Output #0, null, to 'pipe:':
  Metadata:
    COMPATIBLE_BRANDS: isomiso2avc1mp41
    MAJOR_BRAND     : isom
    MINOR_VERSION   : 512
    encoder         : Lavf61.7.100
  Stream #0:0: Video: wrapped_avframe, yuv420p10le(tv, bt709, progressive), 1920x1080 [SAR 1:1 DAR 16:9], q=2-31, 200 kb/s, 23.98 fps, 23.98 tbn
      Metadata:
        encoder         : Lavc61.19.100 wrapped_avframe
  Stream #0:1: Audio: pcm_s16le, 48000 Hz, stereo, s16, 1536 kb/s (default)
      Metadata:
        HANDLER_NAME    : SoundHandler
        VENDOR_ID       : [0][0][0][0]
        _STATISTICS_TAGS: BPS DURATION NUMBER_OF_FRAMES NUMBER_OF_BYTES
        BPS             : 192669
        DURATION        : 00:24:10.709000000
        NUMBER_OF_FRAMES: 68003
        NUMBER_OF_BYTES : 34938433
        _STATISTICS_WRITING_APP: mkvpropedit v66.0.0 ('Josie') 64-bit
        _STATISTICS_WRITING_DATE_UTC: 2025-05-09 14:32:33
        encoder         : Lavc61.19.100 pcm_s16le
frame=  176 fps=0.0 q=-0.0 size=N/A time=00:00:07.34 bitrate=N/A speed=  14x    frame=  363 fps=351 q=-0.0 size=N/A time=00:00:15.14 bitrate=N/A speed=14.7x    frame=  586 fps=377 q=-0.0 size=N/A time=00:00:24.44 bitrate=N/A speed=15.7x    frame=  838 fps=404 q=-0.0 size=N/A time=00:00:34.95 bitrate=N/A speed=16.9x    frame= 1096 fps=424 q=-0.0 size=N/A time=00:00:45.71 bitrate=N/A speed=17.7x    frame= 1348 fps=435 q=-0.0 size=N/A time=00:00:56.22 bitrate=N/A speed=18.1x    frame= 1595 fps=441 q=-0.0 size=N/A time=00:01:06.52 bitrate=N/A speed=18.4x    frame= 1849 fps=447 q=-0.0 size=N/A time=00:01:17.11 bitrate=N/A speed=18.6x    frame= 2108 fps=452 q=-0.0 size=N/A time=00:01:27.92 bitrate=N/A speed=18.8x    frame= 2365 fps=456 q=-0.0 size=N/A time=00:01:38.64 bitrate=N/A speed=  19x    frame= 2606 fps=458 q=-0.0 size=N/A time=00:01:48.69 bitrate=N/A speed=19.1x    frame= 2856 fps=460 q=-0.0 size=N/A time=00:01:59.11 bitrate=N/A speed=19.2x    frame= 3091 fps=460 q=-0.0 size=N/A time=00:02:08.92 bitrate=N/A speed=19.2x    frame= 3346 fps=462 q=-0.0 size=N/A time=00:02:19.55 bitrate=N/A speed=19.3x    frame= 3591 fps=463 q=-0.0 size=N/A time=00:02:29.77 bitrate=N/A speed=19.3x    frame= 3835 fps=464 q=-0.0 size=N/A time=00:02:39.95 bitrate=N/A speed=19.3x    frame= 4066 fps=463 q=-0.0 size=N/A time=00:02:49.58 bitrate=N/A speed=19.3x    frame= 4305 fps=463 q=-0.0 size=N/A time=00:02:59.55 bitrate=N/A speed=19.3x    frame= 4538 fps=463 q=-0.0 size=N/A time=00:03:09.27 bitrate=N/A speed=19.3x    frame= 4760 fps=461 q=-0.0 size=N/A time=00:03:18.53 bitrate=N/A speed=19.2x    frame= 4980 fps=459 q=-0.0 size=N/A time=00:03:27.70 bitrate=N/A speed=19.2x    frame= 5211 fps=459 q=-0.0 size=N/A time=00:03:37.34 bitrate=N/A speed=19.1x    frame= 5400 fps=454 q=-0.0 size=N/A time=00:03:45.22 bitrate=N/A speed=  19x    frame= 5650 fps=456 q=-0.0 size=N/A time=00:03:55.65 bitrate=N/A speed=  19x    frame= 5906 fps=457 q=-0.0 size=N/A time=00:04:06.32 bitrate=N/A speed=19.1x    frame= 6103 fps=455 q=-0.0 size=N/A time=00:04:14.54 bitrate=N/A speed=  19x    frame= 6325 fps=454 q=-0.0 size=N/A time=00:04:23.80 bitrate=N/A speed=18.9x    frame= 6565 fps=454 q=-0.0 size=N/A time=00:04:33.81 bitrate=N/A speed=18.9x    frame= 6817 fps=455 q=-0.0 size=N/A time=00:04:44.32 bitrate=N/A speed=  19x    frame= 7054 fps=455 q=-0.0 size=N/A time=00:04:54.21 bitrate=N/A speed=  19x    frame= 7291 fps=456 q=-0.0 size=N/A time=00:05:04.09 bitrate=N/A speed=  19x    frame= 7536 fps=456 q=-0.0 size=N/A time=00:05:14.31 bitrate=N/A speed=  19x    frame= 7775 fps=456 q=-0.0 size=N/A time=00:05:24.28 bitrate=N/A speed=  19x    frame= 7991 fps=455 q=-0.0 size=N/A time=00:05:33.29 bitrate=N/A speed=  19x    frame= 8235 fps=456 q=-0.0 size=N/A time=00:05:43.46 bitrate=N/A speed=  19x    frame= 8465 fps=455 q=-0.0 size=N/A time=00:05:53.10 bitrate=N/A speed=  19x    frame= 8702 fps=456 q=-0.0 size=N/A time=00:06:02.94 bitrate=N/A speed=  19x    frame= 8933 fps=455 q=-0.0 size=N/A time=00:06:12.58 bitrate=N/A speed=  19x    frame= 9174 fps=455 q=-0.0 size=N/A time=00:06:22.63 bitrate=N/A speed=  19x    frame= 9426 fps=456 q=-0.0 size=N/A time=00:06:33.14 bitrate=N/A speed=  19x    frame= 9641 fps=455 q=-0.0 size=N/A time=00:06:42.11 bitrate=N/A speed=  19x    frame= 9864 fps=455 q=-0.0 size=N/A time=00:06:51.41 bitrate=N/A speed=  19x    frame=10100 fps=455 q=-0.0 size=N/A time=00:07:01.25 bitrate=N/A speed=  19x    frame=10354 fps=456 q=-0.0 size=N/A time=00:07:11.84 bitrate=N/A speed=  19x    frame=10571 fps=455 q=-0.0 size=N/A time=00:07:20.89 bitrate=N/A speed=  19x    frame=10789 fps=454 q=-0.0 size=N/A time=00:07:29.99 bitrate=N/A speed=18.9x    frame=10963 fps=452 q=-0.0 size=N/A time=00:07:37.24 bitrate=N/A speed=18.8x    frame=11175 fps=451 q=-0.0 size=N/A time=00:07:46.09 bitrate=N/A speed=18.8x    frame=11337 fps=448 q=-0.0 size=N/A time=00:07:52.84 bitrate=N/A speed=18.7x    frame=11607 fps=450 q=-0.0 size=N/A time=00:08:04.10 bitrate=N/A speed=18.8x    frame=11843 fps=450 q=-0.0 size=N/A time=00:08:13.95 bitrate=N/A speed=18.8x    frame=12104 fps=451 q=-0.0 size=N/A time=00:08:24.83 bitrate=N/A speed=18.8x    frame=12347 fps=451 q=-0.0 size=N/A time=00:08:34.97 bitrate=N/A speed=18.8x    frame=12584 fps=451 q=-0.0 size=N/A time=00:08:44.85 bitrate=N/A speed=18.8x    frame=12803 fps=451 q=-0.0 size=N/A time=00:08:53.99 bitrate=N/A speed=18.8x    frame=13036 fps=451 q=-0.0 size=N/A time=00:09:03.70 bitrate=N/A speed=18.8x    frame=13253 fps=450 q=-0.0 size=N/A time=00:09:12.76 bitrate=N/A speed=18.8x    frame=13459 fps=450 q=-0.0 size=N/A time=00:09:21.35 bitrate=N/A speed=18.7x    frame=13683 fps=449 q=-0.0 size=N/A time=00:09:30.69 bitrate=N/A speed=18.7x    frame=13897 fps=449 q=-0.0 size=N/A time=00:09:39.62 bitrate=N/A speed=18.7x    frame=14122 fps=448 q=-0.0 size=N/A time=00:09:49.00 bitrate=N/A speed=18.7x    frame=14327 fps=448 q=-0.0 size=N/A time=00:09:57.55 bitrate=N/A speed=18.7x    frame=14539 fps=447 q=-0.0 size=N/A time=00:10:06.39 bitrate=N/A speed=18.6x    frame=14745 fps=446 q=-0.0 size=N/A time=00:10:14.98 bitrate=N/A speed=18.6x    frame=14974 fps=446 q=-0.0 size=N/A time=00:10:24.54 bitrate=N/A speed=18.6x    frame=15192 fps=446 q=-0.0 size=N/A time=00:10:33.63 bitrate=N/A speed=18.6x    frame=15416 fps=446 q=-0.0 size=N/A time=00:10:42.97 bitrate=N/A speed=18.6x    frame=15666 fps=446 q=-0.0 size=N/A time=00:10:53.40 bitrate=N/A speed=18.6x    frame=15907 fps=447 q=-0.0 size=N/A time=00:11:03.45 bitrate=N/A speed=18.6x    frame=16144 fps=447 q=-0.0 size=N/A time=00:11:13.33 bitrate=N/A speed=18.6x    frame=16376 fps=447 q=-0.0 size=N/A time=00:11:23.01 bitrate=N/A speed=18.6x    frame=16588 fps=446 q=-0.0 size=N/A time=00:11:31.85 bitrate=N/A speed=18.6x    frame=16812 fps=446 q=-0.0 size=N/A time=00:11:41.20 bitrate=N/A speed=18.6x    frame=17036 fps=446 q=-0.0 size=N/A time=00:11:50.54 bitrate=N/A speed=18.6x    frame=17279 fps=446 q=-0.0 size=N/A time=00:12:00.67 bitrate=N/A speed=18.6x    frame=17546 fps=447 q=-0.0 size=N/A time=00:12:11.81 bitrate=N/A speed=18.7x    frame=17803 fps=448 q=-0.0 size=N/A time=00:12:22.53 bitrate=N/A speed=18.7x    frame=18024 fps=448 q=-0.0 size=N/A time=00:12:31.75 bitrate=N/A speed=18.7x    frame=18286 fps=448 q=-0.0 size=N/A time=00:12:42.67 bitrate=N/A speed=18.7x    frame=18541 fps=449 q=-0.0 size=N/A time=00:12:53.31 bitrate=N/A speed=18.7x    frame=18789 fps=449 q=-0.0 size=N/A time=00:13:03.65 bitrate=N/A speed=18.7x    frame=19031 fps=450 q=-0.0 size=N/A time=00:13:13.75 bitrate=N/A speed=18.8x    frame=19270 fps=450 q=-0.0 size=N/A time=00:13:23.71 bitrate=N/A speed=18.8x    frame=19488 fps=449 q=-0.0 size=N/A time=00:13:32.81 bitrate=N/A speed=18.7x    frame=19727 fps=450 q=-0.0 size=N/A time=00:13:42.78 bitrate=N/A speed=18.7x    frame=19971 fps=450 q=-0.0 size=N/A time=00:13:52.95 bitrate=N/A speed=18.8x    frame=20194 fps=450 q=-0.0 size=N/A time=00:14:02.25 bitrate=N/A speed=18.8x    frame=20428 fps=450 q=-0.0 size=N/A time=00:14:12.01 bitrate=N/A speed=18.8x    frame=20682 fps=450 q=-0.0 size=N/A time=00:14:22.61 bitrate=N/A speed=18.8x    frame=20913 fps=450 q=-0.0 size=N/A time=00:14:32.24 bitrate=N/A speed=18.8x    frame=21080 fps=449 q=-0.0 size=N/A time=00:14:39.21 bitrate=N/A speed=18.7x    frame=21252 fps=448 q=-0.0 size=N/A time=00:14:46.38 bitrate=N/A speed=18.7x    frame=21430 fps=446 q=-0.0 size=N/A time=00:14:53.80 bitrate=N/A speed=18.6x    frame=21657 fps=446 q=-0.0 size=N/A time=00:15:03.27 bitrate=N/A speed=18.6x    frame=21873 fps=446 q=-0.0 size=N/A time=00:15:12.28 bitrate=N/A speed=18.6x    frame=22093 fps=446 q=-0.0 size=N/A time=00:15:21.46 bitrate=N/A speed=18.6x    frame=22299 fps=445 q=-0.0 size=N/A time=00:15:30.05 bitrate=N/A speed=18.6x    frame=22501 fps=445 q=-0.0 size=N/A time=00:15:38.47 bitrate=N/A speed=18.6x    frame=22700 fps=444 q=-0.0 size=N/A time=00:15:46.77 bitrate=N/A speed=18.5x    frame=22892 fps=443 q=-0.0 size=N/A time=00:15:54.78 bitrate=N/A speed=18.5x    frame=23085 fps=443 q=-0.0 size=N/A time=00:16:02.83 bitrate=N/A speed=18.5x    frame=23263 fps=442 q=-0.0 size=N/A time=00:16:10.26 bitrate=N/A speed=18.4x    frame=23475 fps=442 q=-0.0 size=N/A time=00:16:19.10 bitrate=N/A speed=18.4x    frame=23691 fps=441 q=-0.0 size=N/A time=00:16:28.11 bitrate=N/A speed=18.4x    frame=23907 fps=441 q=-0.0 size=N/A time=00:16:37.12 bitrate=N/A speed=18.4x    frame=24100 fps=441 q=-0.0 size=N/A time=00:16:45.17 bitrate=N/A speed=18.4x    frame=24357 fps=441 q=-0.0 size=N/A time=00:16:55.88 bitrate=N/A speed=18.4x    frame=24596 fps=441 q=-0.0 size=N/A time=00:17:05.85 bitrate=N/A speed=18.4x    frame=24815 fps=441 q=-0.0 size=N/A time=00:17:14.99 bitrate=N/A speed=18.4x    frame=25070 fps=442 q=-0.0 size=N/A time=00:17:25.62 bitrate=N/A speed=18.4x    frame=25311 fps=442 q=-0.0 size=N/A time=00:17:35.67 bitrate=N/A speed=18.4x    frame=25538 fps=442 q=-0.0 size=N/A time=00:17:45.14 bitrate=N/A speed=18.4x    frame=25774 fps=442 q=-0.0 size=N/A time=00:17:54.99 bitrate=N/A speed=18.4x    frame=25988 fps=442 q=-0.0 size=N/A time=00:18:03.91 bitrate=N/A speed=18.4x    frame=26222 fps=442 q=-0.0 size=N/A time=00:18:13.67 bitrate=N/A speed=18.4x    frame=26466 fps=442 q=-0.0 size=N/A time=00:18:23.85 bitrate=N/A speed=18.4x    frame=26673 fps=442 q=-0.0 size=N/A time=00:18:32.48 bitrate=N/A speed=18.4x    frame=26872 fps=441 q=-0.0 size=N/A time=00:18:40.78 bitrate=N/A speed=18.4x    frame=27055 fps=440 q=-0.0 size=N/A time=00:18:48.41 bitrate=N/A speed=18.4x    frame=27306 fps=441 q=-0.0 size=N/A time=00:18:58.88 bitrate=N/A speed=18.4x    frame=27513 fps=440 q=-0.0 size=N/A time=00:19:07.52 bitrate=N/A speed=18.4x    frame=27707 fps=440 q=-0.0 size=N/A time=00:19:15.61 bitrate=N/A speed=18.3x    frame=27926 fps=440 q=-0.0 size=N/A time=00:19:24.74 bitrate=N/A speed=18.3x    frame=28171 fps=440 q=-0.0 size=N/A time=00:19:34.96 bitrate=N/A speed=18.3x    frame=28406 fps=440 q=-0.0 size=N/A time=00:19:44.76 bitrate=N/A speed=18.4x    frame=28644 fps=440 q=-0.0 size=N/A time=00:19:54.69 bitrate=N/A speed=18.4x    frame=28872 fps=440 q=-0.0 size=N/A time=00:20:04.20 bitrate=N/A speed=18.4x    frame=29054 fps=440 q=-0.0 size=N/A time=00:20:11.79 bitrate=N/A speed=18.3x    frame=29261 fps=439 q=-0.0 size=N/A time=00:20:20.42 bitrate=N/A speed=18.3x    frame=29454 fps=439 q=-0.0 size=N/A time=00:20:28.47 bitrate=N/A speed=18.3x    frame=29668 fps=439 q=-0.0 size=N/A time=00:20:37.40 bitrate=N/A speed=18.3x    frame=29841 fps=438 q=-0.0 size=N/A time=00:20:44.61 bitrate=N/A speed=18.3x    frame=30024 fps=437 q=-0.0 size=N/A time=00:20:52.25 bitrate=N/A speed=18.2x    frame=30263 fps=437 q=-0.0 size=N/A time=00:21:02.21 bitrate=N/A speed=18.2x    frame=30504 fps=438 q=-0.0 size=N/A time=00:21:12.27 bitrate=N/A speed=18.3x    frame=30752 fps=438 q=-0.0 size=N/A time=00:21:22.61 bitrate=N/A speed=18.3x    frame=30927 fps=437 q=-0.0 size=N/A time=00:21:29.91 bitrate=N/A speed=18.2x    frame=31097 fps=436 q=-0.0 size=N/A time=00:21:37.00 bitrate=N/A speed=18.2x    frame=31291 fps=436 q=-0.0 size=N/A time=00:21:45.09 bitrate=N/A speed=18.2x    frame=31523 fps=436 q=-0.0 size=N/A time=00:21:54.77 bitrate=N/A speed=18.2x    frame=31764 fps=436 q=-0.0 size=N/A time=00:22:04.82 bitrate=N/A speed=18.2x    frame=32000 fps=436 q=-0.0 size=N/A time=00:22:14.66 bitrate=N/A speed=18.2x    frame=32223 fps=436 q=-0.0 size=N/A time=00:22:23.96 bitrate=N/A speed=18.2x    frame=32476 fps=437 q=-0.0 size=N/A time=00:22:34.51 bitrate=N/A speed=18.2x    frame=32655 fps=436 q=-0.0 size=N/A time=00:22:41.98 bitrate=N/A speed=18.2x    frame=32841 fps=436 q=-0.0 size=N/A time=00:22:49.74 bitrate=N/A speed=18.2x    frame=33041 fps=435 q=-0.0 size=N/A time=00:22:58.08 bitrate=N/A speed=18.2x    frame=33219 fps=435 q=-0.0 size=N/A time=00:23:05.50 bitrate=N/A speed=18.1x    frame=33398 fps=434 q=-0.0 size=N/A time=00:23:12.97 bitrate=N/A speed=18.1x    frame=33571 fps=433 q=-0.0 size=N/A time=00:23:20.19 bitrate=N/A speed=18.1x    frame=33759 fps=433 q=-0.0 size=N/A time=00:23:28.03 bitrate=N/A speed=18.1x    frame=33958 fps=433 q=-0.0 size=N/A time=00:23:36.33 bitrate=N/A speed=  18x    frame=34117 fps=432 q=-0.0 size=N/A time=00:23:42.96 bitrate=N/A speed=  18x    frame=34316 fps=432 q=-0.0 size=N/A time=00:23:51.26 bitrate=N/A speed=  18x    frame=34530 fps=431 q=-0.0 size=N/A time=00:24:00.18 bitrate=N/A speed=  18x    frame=34735 fps=431 q=-0.0 size=N/A time=00:24:08.73 bitrate=N/A speed=  18x    [Parsed_ssim_10 @ 000001f4f009da00] SSIM Y:0.992193 (21.075295) U:0.993815 (22.086519) V:0.993577 (21.922808) All:0.992694 (21.363316)
[out#0/null @ 000001f4ef900200] video:14945KiB audio:272012KiB subtitle:0KiB other streams:0KiB global headers:0KiB muxing overhead: unknown
frame=34780 fps=431 q=-0.0 Lsize=N/A time=00:24:10.61 bitrate=N/A speed=  18x    
